PathFileType	3	(X/Y/Z)	RCH0000002 BBF 10.c3d
DataRate	CameraRate	NumFrames	NumMarkers	Units	OrigDataRate	OrigDataStartFrame	OrigNumFrames
100.0	100.0	5	23	mm	100.0	108	464
Frame#	Time	MAN			RASI			LKNE			LANK			LHEE			LTOE			RPAT			RKNE			RANK			RMED			RHEE			RTOE			LPAT			RPSI			LMED			LASI			T2			LPSI			T10			RTHI			LTHI			RTIB			LTIB			
		X1	Y1	Z1	X2	Y2	Z2	X3	Y3	Z3	X4	Y4	Z4	X5	Y5	Z5	X6	Y6	Z6	X7	Y7	Z7	X8	Y8	Z8	X9	Y9	Z9	X10	Y10	Z10	X11	Y11	Z11	X12	Y12	Z12	X13	Y13	Z13	X14	Y14	Z14	X15	Y15	Z15	X16	Y16	Z16	X17	Y17	Z17	X18	Y18	Z18	X19	Y19	Z19	X20	Y20	Z20	X21	Y21	Z21	X22	Y22	Z22	X23	Y23	Z23	

108	1.070	-2412.80454	109.49123	966.17294	-2459.53466	-12.54487	674.75476	-2430.61052	178.96829	355.32228	-2584.29166	190.48742	134.17277	-2602.96969	143.62342	170.63631	-2537.70988	163.22874	106.69782	-2515.28028	39.80377	387.84002	-2567.47935	-12.61124	360.82342	-2619.77511	2.74419	87.67952	-2633.79618	67.83561	105.77513	-2667.55163	26.15587	124.80070	-2579.61242	44.72957	74.52160	-2381.61000	123.71668	395.34344	-2558.06240	55.82965	727.64076	-2568.57655	121.00564	136.71807	-2446.70699	160.46295	645.94423	-2545.83624	117.50016	987.89564	-2554.02621	125.14668	714.38447	-2533.89226	103.90775	804.46453	-2523.27446	-85.49172	461.17311	-2451.61979	251.08684	477.17479	-2597.72911	-74.49734	239.75213	-2500.52725	246.25171	269.12695	
109	1.080	-2401.98352	109.06320	962.88305	-2452.93350	-14.22216	673.95388	-2410.51211	177.58552	357.06987	-2554.18900	190.21102	130.72201	-2574.80862	143.56003	166.18249	-2506.72656	162.48594	105.40794	-2510.68223	39.14364	386.72696	-2563.64578	-12.60909	360.33738	-2619.21985	3.20097	87.98445	-2632.39628	68.50780	106.34717	-2666.28643	27.09005	125.79526	-2578.72036	44.75742	74.35617	-2363.76650	122.48881	398.93612	-2550.26118	57.09781	725.37699	-2539.22423	120.58126	133.87968	-2435.97262	158.38173	643.99916	-2534.88666	117.34193	986.91650	-2544.86956	126.11908	711.33618	-2525.48861	104.81631	802.97767	-2520.15000	-85.87079	460.70675	-2436.49526	249.74941	477.56713	-2595.44197	-74.13182	239.71295	-2475.77096	245.42299	268.76494	
110	1.090	-2391.20450	108.68718	959.58717	-2446.21900	-15.85653	673.11783	-2390.66723	176.05252	358.68944	-2524.05106	189.90249	127.19417	-2546.67671	143.50902	161.60478	-2475.79076	161.64192	104.04122	-2506.10908	38.48847	385.60469	-2559.81914	-12.63876	359.87471	-2618.70873	3.66389	88.30099	-2631.03954	69.17658	106.92168	-2665.06798	28.02705	126.79231	-2577.87037	44.79370	74.20259	-2346.23597	121.04085	402.33905	-2542.37265	58.33577	723.09843	-2509.95408	120.11255	130.93074	-2425.23425	156.33370	642.00089	-2523.96881	117.22374	985.86654	-2535.66424	127.06536	708.27070	-2517.04247	105.72828	801.43717	-2516.89016	-86.25707	460.21882	-2421.41963	248.29689	477.84802	-2593.23078	-73.77885	239.68665	-2451.05861	244.48742	268.29148	
111	1.100	-2380.47173	108.41354	956.28422	-2439.24610	-17.41305	672.20503	-2371.29399	174.24646	360.05077	-2493.93512	189.53161	123.52444	-2518.67425	143.47613	156.80854	-2445.02872	160.61280	102.52716	-2501.51758	37.83835	384.44950	-2555.94015	-12.72924	359.43955	-2618.24114	4.12307	88.64074	-2629.72829	69.82279	107.50594	-2663.88953	28.94829	127.80233	-2577.07416	44.83746	74.06517	-2329.27699	119.18983	405.36269	-2534.27908	59.50526	720.78943	-2480.91567	119.56143	127.78053	-2414.45593	154.35014	639.90622	-2513.08066	117.18340	984.67837	-2526.33043	127.95354	705.17754	-2508.47360	106.63478	799.79248	-2513.32382	-86.65981	459.67873	-2406.41617	246.63358	477.91286	-2591.09472	-73.45851	239.67685	-2426.47056	243.35443	267.60102	
112	1.110	-2369.77450	108.28423	952.97514	-2431.88347	-18.86885	671.17911	-2352.55911	172.06626	361.03470	-2463.94589	189.06148	119.66253	-2490.93128	143.45242	151.72676	-2414.59843	159.32551	100.80653	-2496.84198	37.18600	383.23749	-2551.92967	-12.90723	359.02829	-2617.79632	4.55489	89.01214	-2628.44869	70.41505	108.10912	-2662.72316	29.81774	128.83765	-2576.32940	44.87929	73.94300	-2313.08749	116.78396	407.83688	-2525.87065	60.57320	718.43502	-2452.28049	118.88846	124.35941	-2403.59331	152.45356	637.68054	-2502.20887	117.25299	983.29582	-2516.78776	128.75679	702.04823	-2499.70023	107.52413	798.00097	-2509.29930	-87.09201	459.06011	-2391.48347	244.67835	477.67557	-2588.99350	-73.19786	239.68365	-2402.09504	241.94230	266.60579	
